<svg width="18" height="18" viewBox="0 0 18 18" fill="none" xmlns="http://www.w3.org/2000/svg">
<path d="M9 16.5C13.1421 16.5 16.5 13.1421 16.5 9C16.5 4.85786 13.1421 1.5 9 1.5C4.85786 1.5 1.5 4.85786 1.5 9C1.5 13.1421 4.85786 16.5 9 16.5Z" fill="#ECEFF2"/>
<path d="M4.19629 14.76C5.49749 15.8464 7.17245 16.5001 9.0001 16.5001C10.8278 16.5001 12.5027 15.8464 13.8039 14.76C12.6985 13.3174 10.9579 12.3872 9.0001 12.3872C7.04228 12.3872 5.30173 13.3174 4.19629 14.76Z" fill="#8898AA"/>
<path d="M8.99991 11.1773C10.6033 11.1773 11.9031 9.87748 11.9031 8.27408C11.9031 6.67067 10.6033 5.37085 8.99991 5.37085C7.3965 5.37085 6.09668 6.67067 6.09668 8.27408C6.09668 9.87748 7.3965 11.1773 8.99991 11.1773Z" fill="#8898AA"/>
</svg>
