<svg width="20" height="20" viewBox="0 0 20 20" fill="none" xmlns="http://www.w3.org/2000/svg">
<circle cx="10" cy="10" r="10" fill="#F5365C"/>
<path d="M16.3882 7.75561C16.3882 7.5603 16.3101 7.36499 16.1694 7.22436L15.1069 6.16186C14.9663 6.02124 14.771 5.94311 14.5757 5.94311C14.3804 5.94311 14.1851 6.02124 14.0444 6.16186L8.91943 11.2947L6.62256 8.98999C6.48193 8.84936 6.28662 8.77124 6.09131 8.77124C5.896 8.77124 5.70068 8.84936 5.56006 8.98999L4.49756 10.0525C4.35693 10.1931 4.27881 10.3884 4.27881 10.5837C4.27881 10.7791 4.35693 10.9744 4.49756 11.115L7.32568 13.9431L8.38818 15.0056C8.52881 15.1462 8.72412 15.2244 8.91943 15.2244C9.11475 15.2244 9.31006 15.1462 9.45068 15.0056L10.5132 13.9431L16.1694 8.28686C16.3101 8.14624 16.3882 7.95093 16.3882 7.75561Z" fill="white"/>
</svg>
