<svg width="14" height="12" viewBox="0 0 14 12" fill="none" xmlns="http://www.w3.org/2000/svg">
<path d="M7.40798 10.2532C7.18265 10.1348 6.81758 10.1346 6.59198 10.2532L3.75571 11.7443C3.30451 11.9816 3.00826 11.7685 3.09477 11.2641L3.63645 8.10591C3.67948 7.855 3.56681 7.50776 3.38429 7.32985L1.0897 5.09318C0.724673 4.73736 0.835704 4.38979 1.34216 4.31619L4.5132 3.85542C4.76513 3.81881 5.06056 3.60435 5.17336 3.37578L6.59149 0.502328C6.81709 0.0452142 7.18197 0.0434042 7.40846 0.502328L8.82659 3.37578C8.93926 3.60407 9.23452 3.81876 9.48675 3.85542L12.6578 4.31619C13.1623 4.3895 13.2767 4.73595 12.9103 5.09318L10.6157 7.32985C10.4334 7.50754 10.3204 7.85469 10.3635 8.10591L10.9052 11.2641C10.9914 11.7666 10.6972 11.9825 10.2442 11.7443L7.40798 10.2532Z" fill="#E9A220"/>
</svg>
