<svg width="13" height="11" viewBox="0 0 13 11" fill="none" xmlns="http://www.w3.org/2000/svg">
<path d="M12.3879 2.75561C12.3879 2.5603 12.3098 2.36499 12.1692 2.22436L11.1067 1.16186C10.9661 1.02124 10.7708 0.943115 10.5754 0.943115C10.3801 0.943115 10.1848 1.02124 10.0442 1.16186L4.91919 6.29468L2.62231 3.98999C2.48169 3.84936 2.28638 3.77124 2.09106 3.77124C1.89575 3.77124 1.70044 3.84936 1.55981 3.98999L0.497314 5.05249C0.35669 5.19311 0.278564 5.38843 0.278564 5.58374C0.278564 5.77905 0.35669 5.97437 0.497314 6.11499L3.32544 8.94312L4.38794 10.0056C4.52856 10.1462 4.72388 10.2244 4.91919 10.2244C5.1145 10.2244 5.30981 10.1462 5.45044 10.0056L6.51294 8.94312L12.1692 3.28686C12.3098 3.14624 12.3879 2.95093 12.3879 2.75561Z" fill="white"/>
</svg>
